# xmcd
#
# Track frame offsets:
#	150
#	18838
#	38537
#	58841
#	74085
#	93501
#	109140
#	127401
#	142930
#	160831
#	182574
#	200785
#	219552
#	236103
#	253731
#	274181
#	290413
#	308082
#	338696
#
# Disc length: 4521 seconds
#
# Revision: 1
# Processed by: cddbd v1.5.2PL0 Copyright (c) Steve Scherf et al.
# Submitted via: audiograbber 1.83.01
#
DISCID=2711a713
DTITLE=Various Artist - TTFP-82
DYEAR=2001
DGENRE=Karaoke
TTITLE0=Sara Evans - Perfect
TTITLE1=Brooks and Dunn - Red Dirt Road
TTITLE2=Alan Jackson - Remember When
TTITLE3=Joe Nichols - She Only Smokes When She Drinks
TTITLE4=Tim McGraw - She's My Kind Of Rain
TTITLE5=George Strait - Tell Me Something Bad About Tulsa
TTITLE6=Martina McBride - This One's For The Girls
TTITLE7=Randy Travis - Three Wooden Crosses
TTITLE8=Gary Allen - Tough Little Boys
TTITLE9=Dixie Chicks - Travelin' Soldier
TTITLE10=Lone Star - Walkin' In Memphis
TTITLE11=Pat Green - Wave On Wave
TTITLE12=Wynonna - What The World Needs
TTITLE13=Dierks Bentley - What Was I Thinkin
TTITLE14=Martina McBride - Where Would You Be
TTITLE15=Brooks and Dunn - You Can't Take The Honky Tonk Out Of The Girl
TTITLE16=Keith Urban - You Look Good In My Shirt
TTITLE17=Vince Gill - Young Man's Town
TTITLE18=None - Data Track
EXTD=
EXTT0=
EXTT1=
EXTT2=
EXTT3=
EXTT4=
EXTT5=
EXTT6=
EXTT7=
EXTT8=
EXTT9=
EXTT10=
EXTT11=
EXTT12=
EXTT13=
EXTT14=
EXTT15=
EXTT16=
EXTT17=
EXTT18=
PLAYORDER=
